<?xml version="1.0" standalone="no"?><!DOCTYPE svg PUBLIC "-//W3C//DTD SVG 1.1//EN" "http://www.w3.org/Graphics/SVG/1.1/DTD/svg11.dtd"><svg t="1711448356685" class="icon" viewBox="0 0 1024 1024" version="1.1" xmlns="http://www.w3.org/2000/svg" p-id="5774" xmlns:xlink="http://www.w3.org/1999/xlink" width="128" height="128"><path d="M889.6 874.666667L618.666667 420.266667V128h42.666666c12.8 0 21.333333-8.533333 21.333334-21.333333s-8.533333-21.333333-21.333334-21.333334H362.666667c-12.8 0-21.333333 8.533333-21.333334 21.333334s8.533333 21.333333 21.333334 21.333333h42.666666v290.133333L134.4 874.666667c-8.533333 12.8-8.533333 29.866667 0 42.666666 6.4 12.8 21.333333 21.333333 36.266667 21.333334h682.666666c14.933333 0 29.866667-8.533333 38.4-21.333334 6.4-14.933333 6.4-29.866667-2.133333-42.666666z m-507.733333-160l-42.666667 85.333333c-4.266667 6.4-10.666667 10.666667-19.2 10.666667-4.266667 0-6.4 0-10.666667-2.133334-10.666667-4.266667-14.933333-17.066667-8.533333-27.733333l42.666667-85.333333c6.4-10.666667 19.2-14.933333 27.733333-8.533334 10.666667 2.133333 14.933333 17.066667 10.666667 27.733334z m17.066666-202.666667l46.933334-78.933333c2.133333-2.133333 2.133333-6.4 2.133333-10.666667V128h128v298.666667c0 4.266667 0 8.533333 2.133333 10.666666l44.8 74.666667H398.933333z" fill="#323333" p-id="5775"></path></svg>